<?xml version="1.0" encoding="UTF-8"?>
<svg xmlns="http://www.w3.org/2000/svg" viewBox="0 0 700 700" overflow="visible">
<path fill="#000000" d="M28.251,100.0H26.001V82.0H20.001V79.75H34.251V82.0H28.251V100.0zM48.8115,100.0H46.5615V91.3867C46.5615,90.25,46.4912,89.626,46.3506,89.125C46.0283,88.4922,45.873,88.1816,45.3428,87.8125C44.7246,87.25,44.209,87.25,43.5146,87.25C42.0146,87.25,41.1885,87.6924,40.3389,88.5742C39.3105,89.2598,39.0615,90.625,39.0615,92.1016V100.0H36.8115V79.75H39.0615V88.0C40.1543,86.002,41.7217,85.0,43.7607,85.0C44.6074,85.0,45.4863,85.1699,46.1982,85.5039C46.7783,85.6738,47.4521,86.2861,47.8271,86.8398C48.0381,87.2734,48.4658,87.9297,48.6006,88.4688C48.5596,88.8438,48.8115,89.8926,48.8115,91.1406V100.0zM55.2627,79.75V82.0H53.0127V79.75H55.2627zM55.2627,85.0V100.0H53.0127V85.0H55.2627zM58.3975,95.1953L60.6475,94.75C61.0986,96.751,62.5371,97.75,64.96,97.75C65.6631,97.75,66.6035,97.5684,67.2217,97.1992C67.6465,96.7598,68.1475,96.2969,68.1475,95.6172C68.1475,94.5801,67.3682,93.9824,65.8154,93.707L62.874,93.0742C61.4912,92.6582,60.8262,92.4121,60.1553,91.7617C59.3965,91.1025,59.1475,90.2441,59.1475,89.1719C59.1475,87.8447,59.5986,86.9922,60.5068,86.1953C61.21,85.252,62.6338,85.0,64.1748,85.0C66.9521,85.0,68.9502,86.3535,69.6475,89.0547L67.3975,89.5C66.873,88.0,65.7979,87.25,64.1748,87.25C63.1846,87.25,62.6924,87.4199,62.1709,87.7539C61.6465,87.915,61.3975,88.5449,61.3975,89.1367C61.3975,89.9453,62.083,90.666,63.46,90.9063L66.1787,91.4922C68.8975,91.8525,70.3975,93.4082,70.3975,95.6641C70.3975,96.9063,69.8643,98.0078,68.8037,98.8047C67.5205,99.502,66.3252,100.0,64.5615,100.0C61.1865,100.0,59.1855,98.4004,58.3975,95.1953zM83.5635,79.75V82.0H81.3135V79.75H83.5635zM83.5635,85.0V100.0H81.3135V85.0H83.5635zM86.6982,95.1953L88.9482,94.75C89.3994,96.751,90.8379,97.75,93.2607,97.75C93.9639,97.75,94.9043,97.5684,95.5225,97.1992C95.9473,96.7598,96.4482,96.2969,96.4482,95.6172C96.4482,94.5801,95.6689,93.9824,94.1162,93.707L91.1748,93.0742C89.792,92.6582,89.127,92.4121,88.4561,91.7617C87.6973,91.1025,87.4482,90.2441,87.4482,89.1719C87.4482,87.8447,87.8994,86.9922,88.8076,86.1953C89.5107,85.252,90.9346,85.0,92.4756,85.0C95.2529,85.0,97.251,86.3535,97.9482,89.0547L95.6982,89.5C95.1738,88.0,94.0986,87.25,92.4756,87.25C91.4854,87.25,90.9932,87.4199,90.4717,87.7539C89.9473,87.915,89.6982,88.5449,89.6982,89.1367C89.6982,89.9453,90.3838,90.666,91.7607,90.9063L94.4795,91.4922C97.1982,91.8525,98.6982,93.4082,98.6982,95.6641C98.6982,96.9063,98.165,98.0078,97.1045,98.8047C95.8213,99.502,94.626,100.0,92.8623,100.0C89.4873,100.0,87.4863,98.4004,86.6982,95.1953zM116.364,97.75V100.0C115.512,100.0,114.771,100.0,114.138,100.0C111.114,100.0,109.614,98.5791,109.614,95.7344V87.25H107.364V85.0H109.614V81.4609L111.864,81.25V85.0H115.614V87.25H111.864V95.6758C111.864,97.0,112.72,97.75,114.431,97.75C114.894,97.75,115.644,97.75,116.364,97.75zM130.843,100.0H128.593V91.3867C128.593,90.25,128.522,89.626,128.382,89.125C128.06,88.4922,127.904,88.1816,127.374,87.8125C126.756,87.25,126.24,87.25,125.546,87.25C124.046,87.25,123.22,87.6924,122.37,88.5742C121.342,89.2598,121.093,90.625,121.093,92.1016V100.0H118.843V79.75H121.093V88.0C122.186,86.002,123.753,85.0,125.792,85.0C126.639,85.0,127.518,85.1699,128.229,85.5039C128.81,85.6738,129.483,86.2861,129.858,86.8398C130.069,87.2734,130.497,87.9297,130.632,88.4688C130.591,88.8438,130.843,89.8926,130.843,91.1406V100.0zM144.794,94.75L147.044,95.1836C146.66,96.4316,145.913,97.7266,144.806,98.6406C143.698,99.502,142.406,100.0,140.915,100.0C138.729,100.0,137.341,99.3174,136.122,97.9492C134.792,96.5166,134.294,94.7939,134.294,92.582C134.294,90.291,134.915,88.4893,136.157,87.0977C137.276,85.501,138.961,85.0,140.845,85.0C142.512,85.0,144.185,85.6299,145.31,86.8867C146.262,88.0088,147.012,90.0098,147.044,92.5H136.544C136.544,94.5625,137.004,95.9541,137.927,96.6719C138.645,97.252,139.837,97.75,140.868,97.75C142.535,97.75,144.035,96.751,144.794,94.75zM144.794,90.25C144.771,89.7051,144.63,89.2188,144.372,88.7969C144.012,88.3516,143.687,88.0059,143.071,87.707C142.277,87.25,141.715,87.25,140.856,87.25C139.503,87.25,138.706,87.5254,137.903,88.0703C136.896,88.5859,136.644,89.3359,136.544,90.25H144.794zM164.159,100.0H161.909V82.0H155.909V79.75H170.159V82.0H164.159V100.0zM174.97,100.0H172.72V85.0H174.97V88.75C175.579,87.1797,176.188,86.166,176.798,85.7031C177.305,85.0,178.046,85.0,178.696,85.0C178.649,85.0,179.147,85.0,179.47,85.0V87.25H179.048C177.788,87.25,176.944,87.7129,176.188,88.6328C175.274,89.3447,175.022,90.7656,174.97,92.2656V100.0zM194.607,100.0H192.357V97.0C191.285,99.001,189.686,100.0,187.553,100.0C185.865,100.0,184.802,99.5078,183.92,98.5234C182.856,97.5332,182.607,96.1416,182.607,94.3281V85.0H184.857V94.0586C184.857,95.4473,185.18,96.4346,185.83,96.9648C186.404,97.252,187.192,97.75,187.975,97.75C188.725,97.75,189.478,97.5742,190.119,97.2227C190.755,96.7891,191.291,96.3555,191.713,95.6992C192.105,94.9785,192.357,94.3252,192.357,93.543V85.0H194.607V100.0zM208.603,94.75L210.853,95.1836C210.469,96.4316,209.722,97.7266,208.614,98.6406C207.507,99.502,206.215,100.0,204.724,100.0C202.538,100.0,201.149,99.3174,199.931,97.9492C198.601,96.5166,198.103,94.7939,198.103,92.582C198.103,90.291,198.724,88.4893,199.966,87.0977C201.085,85.501,202.77,85.0,204.653,85.0C206.32,85.0,207.993,85.6299,209.118,86.8867C210.07,88.0088,210.82,90.0098,210.853,92.5H200.353C200.353,94.5625,200.813,95.9541,201.735,96.6719C202.453,97.252,203.646,97.75,204.677,97.75C206.344,97.75,207.844,96.751,208.603,94.75zM208.603,90.25C208.579,89.7051,208.438,89.2188,208.181,88.7969C207.82,88.3516,207.495,88.0059,206.88,87.707C206.086,87.25,205.523,87.25,204.665,87.25C203.312,87.25,202.515,87.5254,201.712,88.0703C200.704,88.5859,200.452,89.3359,200.353,90.25H208.603zM221.218,97.75V100.0C220.365,100.0,219.624,100.0,218.991,100.0C215.968,100.0,214.468,98.5791,214.468,95.7344V87.25H212.218V85.0H214.468V81.4609L216.718,81.25V85.0H220.468V87.25H216.718V95.6758C216.718,97.0,217.573,97.75,219.284,97.75C219.747,97.75,220.497,97.75,221.218,97.75zM234.384,85.0L228.267,101.348C227.282,103.75,225.771,105.25,223.661,105.25C222.759,105.25,222.258,105.25,221.446,105.25V103.0C222.094,103.0,222.653,103.0,223.122,103.0C223.86,103.0,224.587,102.777,225.126,102.332C225.437,101.866,226.222,100.894,226.802,99.332L221.259,85.0H223.626L227.95,96.1797L232.052,85.0H234.384zM238.397,105.25H236.147V85.0H238.397V88.0C239.364,86.002,240.812,85.0,242.733,85.0C244.154,85.0,245.654,85.7031,246.647,87.1094C247.646,88.3047,248.147,90.2852,248.147,92.4414C248.147,94.5244,247.623,96.5957,246.577,97.9609C245.303,99.25,244.187,100.0,242.546,100.0C240.653,100.0,239.405,99.001,238.397,97.0V105.25zM238.397,90.3906V93.8828C238.538,94.791,238.995,95.9277,239.769,96.6602C240.334,97.252,241.351,97.75,242.194,97.75C243.146,97.75,244.022,97.3574,244.772,96.5664C245.396,95.6729,245.897,94.416,245.897,92.4766C245.897,90.5635,245.558,89.5176,244.878,88.6094C244.037,87.502,243.296,87.25,242.171,87.25C241.28,87.25,240.495,87.5605,239.792,88.1758C238.872,88.7266,238.623,89.5234,238.397,90.3906zM261.923,94.75L264.173,95.1836C263.789,96.4316,263.042,97.7266,261.935,98.6406C260.827,99.502,259.535,100.0,258.044,100.0C255.858,100.0,254.47,99.3174,253.251,97.9492C251.921,96.5166,251.423,94.7939,251.423,92.582C251.423,90.291,252.044,88.4893,253.286,87.0977C254.405,85.501,256.09,85.0,257.974,85.0C259.641,85.0,261.313,85.6299,262.438,86.8867C263.391,88.0088,264.141,90.0098,264.173,92.5H253.673C253.673,94.5625,254.133,95.9541,255.056,96.6719C255.773,97.252,256.966,97.75,257.997,97.75C259.664,97.75,261.164,96.751,261.923,94.75zM261.923,90.25C261.899,89.7051,261.759,89.2188,261.501,88.7969C261.141,88.3516,260.815,88.0059,260.2,87.707C259.406,87.25,258.844,87.25,257.985,87.25C256.632,87.25,255.835,87.5254,255.032,88.0703C254.024,88.5859,253.772,89.3359,253.673,90.25H261.923zM281.288,85.0V87.25H278.288V100.0H276.038V87.25H273.038V85.0H276.038C276.067,82.7822,276.475,81.3525,277.257,80.7109C277.89,80.002,279.006,79.75,280.14,79.75C280.576,79.75,281.326,79.75,282.038,79.75V82.0C281.607,81.877,281.2,81.8125,280.819,81.8125C279.864,81.625,279.322,81.8447,278.909,81.9063C278.288,81.751,278.288,82.7559,278.288,84.2617V85.0H281.288zM289.731,100.0C287.71,100.0,286.254,99.2793,285.161,97.832C284.03,96.3613,283.532,94.5947,283.532,92.4531C283.532,89.9541,284.145,88.3809,285.372,87.0273C286.485,85.501,288.126,85.0,289.954,85.0C291.773,85.0,293.458,85.7119,294.583,87.1328C295.532,88.3457,296.282,90.332,296.282,92.4648C296.282,94.4453,295.673,96.4961,294.454,97.9023C293.095,99.25,291.659,100.0,289.731,100.0zM289.896,97.75C290.944,97.75,292.046,97.3223,292.837,96.4609C293.531,95.5322,294.032,94.2666,294.032,92.4531C294.032,90.3906,293.613,89.3008,292.778,88.4805C291.867,87.502,290.979,87.25,289.872,87.25C288.618,87.25,287.763,87.666,286.966,88.4922C286.031,89.1572,285.782,90.6338,285.782,92.4297C285.782,94.1113,286.175,95.6992,286.966,96.5195C287.616,97.252,288.738,97.75,289.896,97.75zM311.868,100.0H309.618V90.8359C309.618,89.3213,309.305,88.5918,308.681,88.0586C307.875,87.502,307.313,87.25,306.431,87.25C305.024,87.25,304.187,87.6572,303.36,88.4688C302.367,89.125,302.118,90.3525,302.118,91.6797V100.0H299.868V85.0H302.118V88.0C303.343,86.002,304.937,85.0,306.899,85.0C307.937,85.0,308.991,85.2813,309.782,85.8438C310.523,86.377,311.124,87.0391,311.423,87.7422C311.616,88.2813,311.868,89.7197,311.868,91.5625V100.0zM322.878,97.75V100.0C322.025,100.0,321.284,100.0,320.651,100.0C317.628,100.0,316.128,98.5791,316.128,95.7344V87.25H313.878V85.0H316.128V81.4609L318.378,81.25V85.0H322.128V87.25H318.378V95.6758C318.378,97.0,319.233,97.75,320.944,97.75C321.407,97.75,322.157,97.75,322.878,97.75zM335.106,100.0H332.856V79.75H344.856V82.0H335.106V88.0H343.356V90.25H335.106V100.0zM350.341,100.0H348.091V85.0H350.341V88.75C350.95,87.1797,351.56,86.166,352.169,85.7031C352.676,85.0,353.417,85.0,354.067,85.0C354.021,85.0,354.519,85.0,354.841,85.0V87.25H354.419C353.159,87.25,352.315,87.7129,351.56,88.6328C350.646,89.3447,350.394,90.7656,350.341,92.2656V100.0zM369.229,100.0H366.979C366.979,99.5313,366.979,98.6406,366.979,97.3281C366.018,99.001,364.389,100.0,362.092,100.0C360.398,100.0,359.317,99.5869,358.482,98.7578C357.478,97.8438,357.229,96.9385,357.229,95.7813C357.229,94.2754,357.826,93.209,359.021,92.3008C360.117,91.2109,362.25,90.9414,365.127,90.9414C365.385,90.7129,366.135,90.9619,366.979,91.0C366.979,89.9688,366.899,89.2246,366.744,88.7617C366.416,88.2988,366.255,87.9355,365.748,87.6602C365.15,87.25,364.57,87.25,363.744,87.25C361.556,87.25,360.557,88.0,360.229,89.5L357.979,89.1367C358.453,86.251,360.469,85.0,364.025,85.0C365.9,85.0,367.254,85.4453,368.045,86.3359C368.728,87.0332,369.229,88.7705,369.229,90.9648V97.1641C369.229,98.1426,369.229,99.1416,369.229,100.0zM366.979,93.25C366.088,93.1885,365.408,93.1563,364.939,93.1563C363.141,92.9395,361.869,93.3848,360.908,93.8359C359.728,94.0938,359.479,94.9463,359.479,95.8047C359.479,96.2441,359.73,96.8066,360.24,97.1875C360.75,97.501,361.5,97.75,362.479,97.75C363.791,97.75,364.869,97.375,365.713,96.625C366.478,95.752,366.979,94.9932,366.979,93.9766C366.979,93.5313,366.979,93.5313,366.979,93.25zM385.843,100.0H383.593V90.8359C383.593,89.3213,383.279,88.5918,382.655,88.0586C381.85,87.502,381.287,87.25,380.405,87.25C378.999,87.25,378.161,87.6572,377.335,88.4688C376.342,89.125,376.093,90.3525,376.093,91.6797V100.0H373.843V85.0H376.093V88.0C377.317,86.002,378.911,85.0,380.874,85.0C381.911,85.0,382.966,85.2813,383.757,85.8438C384.498,86.377,385.099,87.0391,385.397,87.7422C385.591,88.2813,385.843,89.7197,385.843,91.5625V100.0zM402.103,100.0H399.618L395.505,91.832L392.353,95.5V100.0H390.103V79.75H392.353V92.2773L398.599,85.0H401.353L397.075,89.9922L402.103,100.0zM407.382,100.0H405.132V79.75H407.382V100.0zM414.281,79.75V82.0H412.031V79.75H414.281zM414.281,85.0V100.0H412.031V85.0H414.281zM430.916,100.0H428.666V90.8359C428.666,89.3213,428.353,88.5918,427.729,88.0586C426.923,87.502,426.36,87.25,425.479,87.25C424.072,87.25,423.234,87.6572,422.408,88.4688C421.415,89.125,421.166,90.3525,421.166,91.6797V100.0H418.916V85.0H421.166V88.0C422.391,86.002,423.984,85.0,425.947,85.0C426.984,85.0,428.039,85.2813,428.83,85.8438C429.571,86.377,430.172,87.0391,430.471,87.7422C430.664,88.2813,430.916,89.7197,430.916,91.5625V100.0zM449.426,89.5V100.0H448.23L447.551,97.4922C446.191,99.001,444.48,100.0,442.043,100.0C439.362,100.0,437.347,99.0361,435.879,97.1055C434.174,95.1426,433.676,92.834,433.676,90.0742C433.676,86.9395,434.443,84.6719,435.984,82.7031C437.511,80.5,439.623,79.75,442.266,79.75C445.808,79.75,448.307,81.5635,449.426,85.1875L447.176,85.75C446.815,84.4375,446.147,83.4854,445.172,82.8906C444.111,82.252,443.124,82.0,441.961,82.0C439.887,82.0,438.375,82.7559,437.391,84.2617C436.175,85.7676,435.926,87.6602,435.926,89.9336C435.926,92.2363,436.471,94.293,437.566,95.6758C438.621,97.0,440.159,97.75,442.043,97.75C443.479,97.75,444.744,97.3105,445.723,96.4258C446.689,95.4854,447.199,94.3281,447.199,92.7813C447.19,92.4004,447.19,92.1484,447.176,91.75H441.926V89.5H449.426zM460.034,100.0C458.013,100.0,456.557,99.2793,455.464,97.832C454.333,96.3613,453.835,94.5947,453.835,92.4531C453.835,89.9541,454.447,88.3809,455.675,87.0273C456.788,85.501,458.429,85.0,460.257,85.0C462.076,85.0,463.761,85.7119,464.886,87.1328C465.835,88.3457,466.585,90.332,466.585,92.4648C466.585,94.4453,465.976,96.4961,464.757,97.9023C463.397,99.25,461.962,100.0,460.034,100.0zM460.198,97.75C461.247,97.75,462.349,97.3223,463.14,96.4609C463.834,95.5322,464.335,94.2666,464.335,92.4531C464.335,90.3906,463.916,89.3008,463.081,88.4805C462.17,87.502,461.282,87.25,460.175,87.25C458.921,87.25,458.065,87.666,457.269,88.4922C456.334,89.1572,456.085,90.6338,456.085,92.4297C456.085,94.1113,456.478,95.6992,457.269,96.5195C457.919,97.252,459.041,97.75,460.198,97.75zM476.921,97.75V100.0C476.068,100.0,475.327,100.0,474.694,100.0C471.671,100.0,470.171,98.5791,470.171,95.7344V87.25H467.921V85.0H470.171V81.4609L472.421,81.25V85.0H476.171V87.25H472.421V95.6758C472.421,97.0,473.276,97.75,474.987,97.75C475.45,97.75,476.2,97.75,476.921,97.75zM491.399,100.0H489.149V91.3867C489.149,90.25,489.079,89.626,488.938,89.125C488.616,88.4922,488.461,88.1816,487.931,87.8125C487.313,87.25,486.797,87.25,486.103,87.25C484.603,87.25,483.776,87.6924,482.927,88.5742C481.898,89.2598,481.649,90.625,481.649,92.1016V100.0H479.399V79.75H481.649V88.0C482.742,86.002,484.31,85.0,486.349,85.0C487.195,85.0,488.074,85.1699,488.786,85.5039C489.366,85.6738,490.04,86.2861,490.415,86.8398C490.626,87.2734,491.054,87.9297,491.188,88.4688C491.147,88.8438,491.399,89.8926,491.399,91.1406V100.0zM497.851,79.75V82.0H495.601V79.75H497.851zM497.851,85.0V100.0H495.601V85.0H497.851zM511.485,94.75L513.735,95.125C513.437,96.5254,512.786,97.8438,511.778,98.7109C510.68,99.502,509.522,100.0,508.017,100.0C505.875,100.0,504.41,99.2793,503.341,97.832C502.233,96.3613,501.735,94.6211,501.735,92.5352C501.735,90.3672,502.298,88.5859,503.423,87.1563C504.492,85.501,506.095,85.0,508.04,85.0C509.555,85.0,510.949,85.4541,511.919,86.3594C512.751,87.0625,513.501,88.4336,513.735,89.8633L511.485,90.25C511.093,88.252,509.915,87.25,507.946,87.25C506.602,87.25,505.69,87.7305,505.005,88.6914C504.234,89.4238,503.985,90.8945,503.985,92.418C503.985,93.8828,504.325,95.418,505.005,96.3555C505.594,97.252,506.637,97.75,507.864,97.75C509.728,97.75,510.976,96.751,511.485,94.75zM520.96,91.0V93.25H514.96V91.0H520.96zM523.96,100.0V79.75H531.706C533.575,79.75,535.104,80.2393,536.042,81.2148C536.959,81.9531,537.46,83.3242,537.46,84.6133C537.46,86.7578,536.279,88.3838,533.921,89.125C535.257,89.3682,536.394,90.1533,537.12,91.1055C537.709,92.0254,538.21,93.1328,538.21,94.3281C538.21,95.8281,537.686,97.2871,536.64,98.3711C535.365,99.25,533.974,100.0,531.788,100.0H523.96zM526.21,88.0H530.616C532.233,88.0,533.675,87.6836,534.284,87.0508C534.709,86.2363,535.21,85.6768,535.21,84.8242C535.21,83.79,534.876,83.3008,534.214,82.7852C533.388,82.252,532.576,82.0,531.272,82.0H526.21V88.0zM526.21,97.75H531.729C532.989,97.75,534.123,97.4277,534.858,96.7773C535.459,95.9541,535.96,95.2832,535.96,94.2344C535.96,93.4316,535.79,92.834,535.456,92.207C535.046,91.4307,534.659,91.1025,534.05,90.7656C533.335,90.25,532.55,90.25,531.354,90.25H526.21V97.75zM547.544,100.0C545.522,100.0,544.066,99.2793,542.974,97.832C541.843,96.3613,541.345,94.5947,541.345,92.4531C541.345,89.9541,541.957,88.3809,543.185,87.0273C544.298,85.501,545.938,85.0,547.767,85.0C549.586,85.0,551.271,85.7119,552.396,87.1328C553.345,88.3457,554.095,90.332,554.095,92.4648C554.095,94.4453,553.485,96.4961,552.267,97.9023C550.907,99.25,549.472,100.0,547.544,100.0zM547.708,97.75C548.757,97.75,549.858,97.3223,550.649,96.4609C551.344,95.5322,551.845,94.2666,551.845,92.4531C551.845,90.3906,551.426,89.3008,550.591,88.4805C549.68,87.502,548.792,87.25,547.685,87.25C546.431,87.25,545.575,87.666,544.778,88.4922C543.844,89.1572,543.595,90.6338,543.595,92.4297C543.595,94.1113,543.987,95.6992,544.778,96.5195C545.429,97.252,546.551,97.75,547.708,97.75zM563.13,100.0C561.108,100.0,559.652,99.2793,558.56,97.832C557.429,96.3613,556.931,94.5947,556.931,92.4531C556.931,89.9541,557.543,88.3809,558.771,87.0273C559.884,85.501,561.524,85.0,563.353,85.0C565.172,85.0,566.856,85.7119,567.981,87.1328C568.931,88.3457,569.681,90.332,569.681,92.4648C569.681,94.4453,569.071,96.4961,567.853,97.9023C566.493,99.25,565.058,100.0,563.13,100.0zM563.294,97.75C564.343,97.75,565.444,97.3223,566.235,96.4609C566.93,95.5322,567.431,94.2666,567.431,92.4531C567.431,90.3906,567.012,89.3008,566.177,88.4805C565.266,87.502,564.378,87.25,563.271,87.25C562.017,87.25,561.161,87.666,560.364,88.4922C559.43,89.1572,559.181,90.6338,559.181,92.4297C559.181,94.1113,559.573,95.6992,560.364,96.5195C561.015,97.252,562.137,97.75,563.294,97.75zM585.267,100.0H582.782L578.669,91.832L575.517,95.5V100.0H573.267V79.75H575.517V92.2773L581.763,85.0H584.517L580.239,89.9922L585.267,100.0z"/>
<path fill="#000000" d="M34.251,130.0H32.001V127.0C30.9287,129.001,29.3291,130.0,27.1963,130.0C25.5088,130.0,24.4453,129.508,23.5635,128.523C22.5,127.533,22.251,126.142,22.251,124.328V115.0H24.501V124.059C24.501,125.447,24.8232,126.435,25.4736,126.965C26.0479,127.252,26.8359,127.75,27.6182,127.75C28.3682,127.75,29.1211,127.574,29.7627,127.223C30.3984,126.789,30.9346,126.355,31.3564,125.699C31.749,124.979,32.001,124.325,32.001,123.543V115.0H34.251V130.0zM36.9961,125.195L39.2461,124.75C39.6973,126.751,41.1357,127.75,43.5586,127.75C44.2617,127.75,45.2021,127.568,45.8203,127.199C46.2451,126.76,46.7461,126.297,46.7461,125.617C46.7461,124.58,45.9668,123.982,44.4141,123.707L41.4727,123.074C40.0898,122.658,39.4248,122.412,38.7539,121.762C37.9951,121.103,37.7461,120.244,37.7461,119.172C37.7461,117.845,38.1973,116.992,39.1055,116.195C39.8086,115.252,41.2324,115.0,42.7734,115.0C45.5508,115.0,47.5488,116.354,48.2461,119.055L45.9961,119.5C45.4717,118.0,44.3965,117.25,42.7734,117.25C41.7832,117.25,41.291,117.42,40.7695,117.754C40.2451,117.915,39.9961,118.545,39.9961,119.137C39.9961,119.945,40.6816,120.666,42.0586,120.906L44.7773,121.492C47.4961,121.853,48.9961,123.408,48.9961,125.664C48.9961,126.906,48.4629,128.008,47.4023,128.805C46.1191,129.502,44.9238,130.0,43.1602,130.0C39.7852,130.0,37.7842,128.4,36.9961,125.195zM62.1621,124.75L64.4121,125.184C64.0283,126.432,63.2813,127.727,62.1738,128.641C61.0664,129.502,59.7744,130.0,58.2832,130.0C56.0977,130.0,54.709,129.317,53.4902,127.949C52.1602,126.517,51.6621,124.794,51.6621,122.582C51.6621,120.291,52.2832,118.489,53.5254,117.098C54.6445,115.501,56.3291,115.0,58.2129,115.0C59.8799,115.0,61.5527,115.63,62.6777,116.887C63.6299,118.009,64.3799,120.01,64.4121,122.5H53.9121C53.9121,124.563,54.3721,125.954,55.2949,126.672C56.0127,127.252,57.2051,127.75,58.2363,127.75C59.9033,127.75,61.4033,126.751,62.1621,124.75zM62.1621,120.25C62.1387,119.705,61.998,119.219,61.7402,118.797C61.3799,118.352,61.0547,118.006,60.4395,117.707C59.6455,117.25,59.083,117.25,58.2246,117.25C56.8711,117.25,56.0742,117.525,55.2715,118.07C54.2637,118.586,54.0117,119.336,53.9121,120.25H62.1621zM80.0273,109.75V130.0H77.7773V127.75C76.752,129.25,75.2109,130.0,73.1484,130.0C71.2295,130.0,70.0313,129.306,68.9297,127.914C67.7754,126.461,67.2773,124.75,67.2773,122.617C67.2773,120.399,67.8311,118.627,68.9414,117.18C70.002,115.501,71.5371,115.0,73.3828,115.0C75.1436,115.0,76.6436,115.75,77.7773,117.25V109.75H80.0273zM77.7773,120.941C77.7773,119.594,77.3613,118.932,76.5352,118.258C75.6211,117.502,74.7422,117.25,73.6406,117.25C72.3223,117.25,71.4609,117.701,70.6875,118.598C69.7764,119.298,69.5273,120.76,69.5273,122.383C69.5273,123.924,69.8818,125.465,70.5938,126.379C71.1973,127.252,72.2754,127.75,73.5117,127.75C74.5576,127.75,75.627,127.407,76.4883,126.719C77.2764,125.869,77.7773,125.207,77.7773,124.27V120.941zM93.9346,109.75V112.0H91.6846V109.75H93.9346zM93.9346,115.0V130.0H91.6846V115.0H93.9346zM110.569,130.0H108.319V120.836C108.319,119.321,108.006,118.592,107.382,118.059C106.576,117.502,106.014,117.25,105.132,117.25C103.726,117.25,102.888,117.657,102.062,118.469C101.068,119.125,100.819,120.353,100.819,121.68V130.0H98.5693V115.0H100.819V118.0C102.044,116.002,103.638,115.0,105.601,115.0C106.638,115.0,107.692,115.281,108.483,115.844C109.225,116.377,109.825,117.039,110.124,117.742C110.317,118.281,110.569,119.72,110.569,121.563V130.0zM124.579,130.0H122.329V109.75H128.985C130.843,109.75,132.598,110.359,133.591,111.578C134.578,112.688,135.079,114.186,135.079,115.738C135.079,117.235,134.531,118.92,133.438,120.051C132.149,121.0,130.931,121.75,129.173,121.75H124.579V130.0zM124.579,119.5H129.021C129.929,119.5,131.077,119.157,131.774,118.469C132.328,117.625,132.829,116.872,132.829,115.738C132.829,114.525,132.516,113.907,131.892,113.148C131.086,112.252,130.374,112.0,129.196,112.0H124.579V119.5zM144.551,130.0C142.529,130.0,141.073,129.279,139.98,127.832C138.85,126.361,138.352,124.595,138.352,122.453C138.352,119.954,138.964,118.381,140.191,117.027C141.305,115.501,142.945,115.0,144.773,115.0C146.593,115.0,148.277,115.712,149.402,117.133C150.352,118.346,151.102,120.332,151.102,122.465C151.102,124.445,150.492,126.496,149.273,127.902C147.914,129.25,146.479,130.0,144.551,130.0zM144.715,127.75C145.764,127.75,146.865,127.322,147.656,126.461C148.351,125.532,148.852,124.267,148.852,122.453C148.852,120.391,148.433,119.301,147.598,118.48C146.687,117.502,145.799,117.25,144.691,117.25C143.438,117.25,142.582,117.666,141.785,118.492C140.851,119.157,140.602,120.634,140.602,122.43C140.602,124.111,140.994,125.699,141.785,126.52C142.436,127.252,143.558,127.75,144.715,127.75zM153.188,125.195L155.438,124.75C155.889,126.751,157.327,127.75,159.75,127.75C160.453,127.75,161.394,127.568,162.012,127.199C162.437,126.76,162.938,126.297,162.938,125.617C162.938,124.58,162.158,123.982,160.605,123.707L157.664,123.074C156.281,122.658,155.616,122.412,154.945,121.762C154.187,121.103,153.938,120.244,153.938,119.172C153.938,117.845,154.389,116.992,155.297,116.195C156.0,115.252,157.424,115.0,158.965,115.0C161.742,115.0,163.74,116.354,164.438,119.055L162.188,119.5C161.663,118.0,160.588,117.25,158.965,117.25C157.975,117.25,157.482,117.42,156.961,117.754C156.437,117.915,156.188,118.545,156.188,119.137C156.188,119.945,156.873,120.666,158.25,120.906L160.969,121.492C163.688,121.853,165.188,123.408,165.188,125.664C165.188,126.906,164.654,128.008,163.594,128.805C162.311,129.502,161.115,130.0,159.352,130.0C155.977,130.0,153.976,128.4,153.188,125.195zM175.354,127.75V130.0C174.501,130.0,173.76,130.0,173.127,130.0C170.104,130.0,168.604,128.579,168.604,125.734V117.25H166.354V115.0H168.604V111.461L170.854,111.25V115.0H174.604V117.25H170.854V125.676C170.854,127.0,171.709,127.75,173.42,127.75C173.883,127.75,174.633,127.75,175.354,127.75zM175.582,124.516L177.832,124.0C178.784,126.502,180.858,127.75,184.055,127.75C185.643,127.75,186.973,127.422,187.816,126.766C188.581,125.931,189.082,125.213,189.082,124.094C189.082,123.227,188.754,122.588,188.098,122.078C187.277,121.454,186.694,121.208,185.836,121.012L181.301,120.344C180.097,120.057,179.394,119.775,178.723,119.406C178.011,118.82,177.492,118.478,177.023,117.719C176.332,116.799,176.332,116.078,176.332,115.094C176.332,113.438,176.977,112.173,178.266,111.203C179.417,110.002,181.219,109.75,183.234,109.75C186.908,109.75,189.41,111.528,190.582,115.082L188.332,115.75C188.051,114.517,187.389,113.582,186.352,112.949C185.229,112.252,184.219,112.0,183.047,112.0C181.644,112.0,180.847,112.287,179.941,112.855C178.831,113.383,178.582,114.224,178.582,115.27C178.582,116.635,179.76,117.704,182.121,118.211L186.316,118.82C189.58,119.594,191.332,121.398,191.332,124.164C191.332,125.781,190.679,127.229,189.375,128.336C187.98,129.25,186.249,130.0,183.891,130.0C179.675,130.0,176.924,128.172,175.582,124.516zM203.912,124.75L206.162,125.125C205.863,126.525,205.213,127.844,204.205,128.711C203.106,129.502,201.949,130.0,200.443,130.0C198.302,130.0,196.837,129.279,195.768,127.832C194.66,126.361,194.162,124.621,194.162,122.535C194.162,120.367,194.725,118.586,195.85,117.156C196.919,115.501,198.521,115.0,200.467,115.0C201.981,115.0,203.376,115.454,204.346,116.359C205.178,117.063,205.928,118.434,206.162,119.863L203.912,120.25C203.52,118.252,202.342,117.25,200.373,117.25C199.028,117.25,198.117,117.73,197.432,118.691C196.661,119.424,196.412,120.895,196.412,122.418C196.412,123.883,196.752,125.418,197.432,126.355C198.021,127.252,199.063,127.75,200.291,127.75C202.154,127.75,203.402,126.751,203.912,124.75zM211.137,130.0H208.887V115.0H211.137V118.75C211.746,117.18,212.355,116.166,212.965,115.703C213.472,115.0,214.213,115.0,214.863,115.0C214.816,115.0,215.314,115.0,215.637,115.0V117.25H215.215C213.955,117.25,213.111,117.713,212.355,118.633C211.441,119.345,211.189,120.766,211.137,122.266V130.0zM221.024,109.75V112.0H218.774V109.75H221.024zM221.024,115.0V130.0H218.774V115.0H221.024zM227.909,135.25H225.659V115.0H227.909V118.0C228.876,116.002,230.323,115.0,232.245,115.0C233.666,115.0,235.166,115.703,236.159,117.109C237.158,118.305,237.659,120.285,237.659,122.441C237.659,124.524,237.135,126.596,236.089,127.961C234.814,129.25,233.698,130.0,232.058,130.0C230.165,130.0,228.917,129.001,227.909,127.0V135.25zM227.909,120.391V123.883C228.05,124.791,228.507,125.928,229.28,126.66C229.846,127.252,230.862,127.75,231.706,127.75C232.658,127.75,233.534,127.357,234.284,126.566C234.908,125.673,235.409,124.416,235.409,122.477C235.409,120.563,235.069,119.518,234.39,118.609C233.549,117.502,232.808,117.25,231.683,117.25C230.792,117.25,230.007,117.561,229.304,118.176C228.384,118.727,228.135,119.523,227.909,120.391zM248.435,127.75V130.0C247.582,130.0,246.841,130.0,246.208,130.0C243.185,130.0,241.685,128.579,241.685,125.734V117.25H239.435V115.0H241.685V111.461L243.935,111.25V115.0H247.685V117.25H243.935V125.676C243.935,127.0,244.79,127.75,246.501,127.75C246.964,127.75,247.714,127.75,248.435,127.75zM270.413,109.75V130.0H268.163V127.75C267.138,129.25,265.597,130.0,263.534,130.0C261.615,130.0,260.417,129.306,259.315,127.914C258.161,126.461,257.663,124.75,257.663,122.617C257.663,120.399,258.217,118.627,259.327,117.18C260.388,115.501,261.923,115.0,263.769,115.0C265.529,115.0,267.029,115.75,268.163,117.25V109.75H270.413zM268.163,120.941C268.163,119.594,267.747,118.932,266.921,118.258C266.007,117.502,265.128,117.25,264.026,117.25C262.708,117.25,261.847,117.701,261.073,118.598C260.162,119.298,259.913,120.76,259.913,122.383C259.913,123.924,260.268,125.465,260.979,126.379C261.583,127.252,262.661,127.75,263.897,127.75C264.943,127.75,266.013,127.407,266.874,126.719C267.662,125.869,268.163,125.207,268.163,124.27V120.941zM276.82,109.75V112.0H274.57V109.75H276.82zM276.82,115.0V130.0H274.57V115.0H276.82zM283.705,130.0H281.455V115.0H283.705V118.75C284.314,117.18,284.924,116.166,285.533,115.703C286.04,115.0,286.781,115.0,287.432,115.0C287.385,115.0,287.883,115.0,288.205,115.0V117.25H287.783C286.523,117.25,285.68,117.713,284.924,118.633C284.01,119.345,283.758,120.766,283.705,122.266V130.0zM301.093,124.75L303.343,125.184C302.959,126.432,302.212,127.727,301.104,128.641C299.997,129.502,298.705,130.0,297.214,130.0C295.028,130.0,293.64,129.317,292.421,127.949C291.091,126.517,290.593,124.794,290.593,122.582C290.593,120.291,291.214,118.489,292.456,117.098C293.575,115.501,295.26,115.0,297.144,115.0C298.811,115.0,300.483,115.63,301.608,116.887C302.561,118.009,303.311,120.01,303.343,122.5H292.843C292.843,124.563,293.303,125.954,294.226,126.672C294.943,127.252,296.136,127.75,297.167,127.75C298.834,127.75,300.334,126.751,301.093,124.75zM301.093,120.25C301.069,119.705,300.929,119.219,300.671,118.797C300.311,118.352,299.985,118.006,299.37,117.707C298.576,117.25,298.014,117.25,297.155,117.25C295.802,117.25,295.005,117.525,294.202,118.07C293.194,118.586,292.942,119.336,292.843,120.25H301.093zM315.958,124.75L318.208,125.125C317.909,126.525,317.259,127.844,316.251,128.711C315.152,129.502,313.995,130.0,312.489,130.0C310.348,130.0,308.883,129.279,307.813,127.832C306.706,126.361,306.208,124.621,306.208,122.535C306.208,120.367,306.771,118.586,307.896,117.156C308.965,115.501,310.567,115.0,312.513,115.0C314.027,115.0,315.422,115.454,316.392,116.359C317.224,117.063,317.974,118.434,318.208,119.863L315.958,120.25C315.565,118.252,314.388,117.25,312.419,117.25C311.074,117.25,310.163,117.73,309.478,118.691C308.707,119.424,308.458,120.895,308.458,122.418C308.458,123.883,308.798,125.418,309.478,126.355C310.066,127.252,311.109,127.75,312.337,127.75C314.2,127.75,315.448,126.751,315.958,124.75zM327.683,127.75V130.0C326.83,130.0,326.089,130.0,325.456,130.0C322.433,130.0,320.933,128.579,320.933,125.734V117.25H318.683V115.0H320.933V111.461L323.183,111.25V115.0H326.933V117.25H323.183V125.676C323.183,127.0,324.038,127.75,325.749,127.75C326.212,127.75,326.962,127.75,327.683,127.75zM332.411,130.0H330.161V109.75H332.411V130.0zM347.748,115.0L341.631,131.348C340.646,133.75,339.135,135.25,337.025,135.25C336.123,135.25,335.622,135.25,334.811,135.25V133.0C335.458,133.0,336.018,133.0,336.486,133.0C337.225,133.0,337.951,132.777,338.49,132.332C338.801,131.866,339.586,130.894,340.166,129.332L334.623,115.0H336.99L341.314,126.18L345.416,115.0H347.748zM351.762,127.75V130.0H349.512V127.75H351.762zM370.512,130.0H368.262V112.0H362.262V109.75H376.512V112.0H370.512V130.0zM388.822,124.75L391.072,125.184C390.688,126.432,389.941,127.727,388.834,128.641C387.727,129.502,386.435,130.0,384.943,130.0C382.758,130.0,381.369,129.317,380.15,127.949C378.82,126.517,378.322,124.794,378.322,122.582C378.322,120.291,378.943,118.489,380.186,117.098C381.305,115.501,382.989,115.0,384.873,115.0C386.54,115.0,388.213,115.63,389.338,116.887C390.29,118.009,391.04,120.01,391.072,122.5H380.572C380.572,124.563,381.032,125.954,381.955,126.672C382.673,127.252,383.865,127.75,384.896,127.75C386.563,127.75,388.063,126.751,388.822,124.75zM388.822,120.25C388.799,119.705,388.658,119.219,388.4,118.797C388.04,118.352,387.715,118.006,387.1,117.707C386.306,117.25,385.743,117.25,384.885,117.25C383.531,117.25,382.734,117.525,381.932,118.07C380.924,118.586,380.672,119.336,380.572,120.25H388.822zM393.188,125.195L395.438,124.75C395.889,126.751,397.327,127.75,399.75,127.75C400.453,127.75,401.394,127.568,402.012,127.199C402.437,126.76,402.938,126.297,402.938,125.617C402.938,124.58,402.158,123.982,400.605,123.707L397.664,123.074C396.281,122.658,395.616,122.412,394.945,121.762C394.187,121.103,393.938,120.244,393.938,119.172C393.938,117.845,394.389,116.992,395.297,116.195C396.0,115.252,397.424,115.0,398.965,115.0C401.742,115.0,403.74,116.354,404.438,119.055L402.188,119.5C401.663,118.0,400.588,117.25,398.965,117.25C397.975,117.25,397.482,117.42,396.961,117.754C396.437,117.915,396.188,118.545,396.188,119.137C396.188,119.945,396.873,120.666,398.25,120.906L400.969,121.492C403.688,121.853,405.188,123.408,405.188,125.664C405.188,126.906,404.654,128.008,403.594,128.805C402.311,129.502,401.115,130.0,399.352,130.0C395.977,130.0,393.976,128.4,393.188,125.195zM415.354,127.75V130.0C414.501,130.0,413.76,130.0,413.127,130.0C410.104,130.0,408.604,128.579,408.604,125.734V117.25H406.354V115.0H408.604V111.461L410.854,111.25V115.0H414.604V117.25H410.854V125.676C410.854,127.0,411.709,127.75,413.42,127.75C413.883,127.75,414.633,127.75,415.354,127.75zM420.082,109.75V112.0H417.832V109.75H420.082zM420.082,115.0V130.0H417.832V115.0H420.082zM436.717,130.0H434.467V120.836C434.467,119.321,434.153,118.592,433.529,118.059C432.724,117.502,432.161,117.25,431.279,117.25C429.873,117.25,429.035,117.657,428.209,118.469C427.216,119.125,426.967,120.353,426.967,121.68V130.0H424.717V115.0H426.967V118.0C428.191,116.002,429.785,115.0,431.748,115.0C432.785,115.0,433.84,115.281,434.631,115.844C435.372,116.377,435.973,117.039,436.271,117.742C436.465,118.281,436.717,119.72,436.717,121.563V130.0zM453.727,112.75V115.0C452.607,115.0,451.869,115.126,451.512,115.375C451.14,115.501,450.914,116.078,450.797,116.734C451.726,117.789,452.227,119.099,452.227,120.426C452.227,121.759,451.679,123.013,450.586,124.012C449.297,125.002,448.037,125.5,446.203,125.5C445.547,125.5,445.433,125.471,445.137,125.406C444.437,125.087,444.217,125.254,444.07,125.254C443.757,125.087,443.452,125.371,443.063,125.605C442.477,125.805,442.477,126.133,442.477,126.484C442.477,126.906,442.761,127.313,443.332,127.469C443.874,127.463,445.266,127.712,447.398,127.75C449.063,127.797,450.533,127.914,451.395,128.102C452.039,128.172,452.991,128.699,453.586,129.332C453.976,129.938,454.477,130.741,454.477,131.664C454.477,134.5,451.857,136.0,446.625,136.0C444.006,136.0,442.327,135.631,441.188,134.898C439.975,134.031,439.477,133.179,439.477,131.945C439.477,130.305,440.229,129.432,441.738,128.875C440.725,128.119,440.227,127.451,440.227,126.496C440.227,125.274,440.865,124.486,442.148,123.883C440.725,122.641,440.227,121.557,440.227,119.992C440.227,118.369,440.807,117.338,441.973,116.406C443.054,115.252,444.554,115.0,446.227,115.0C447.413,115.0,448.491,115.211,449.461,115.633C449.531,114.353,449.965,113.811,450.527,113.371C450.914,112.727,451.96,112.715,453.117,112.715C453.188,112.478,453.437,112.727,453.727,112.75zM446.215,123.25C447.076,123.25,448.225,122.978,448.922,122.43C449.476,121.65,449.977,121.161,449.977,120.285C449.977,119.383,449.613,118.668,448.887,118.105C448.022,117.502,447.281,117.25,446.25,117.25C445.257,117.25,444.39,117.517,443.625,118.047C442.726,118.563,442.477,119.336,442.477,120.32C442.477,121.173,442.819,121.902,443.508,122.441C444.1,122.752,445.096,123.25,446.215,123.25zM443.461,129.801C442.225,130.047,441.727,130.838,441.727,131.629C441.727,132.256,442.198,132.818,443.145,133.188C443.874,133.498,445.307,133.75,446.777,133.75C447.961,133.75,449.394,133.589,450.527,133.27C451.477,132.865,452.227,132.42,452.227,131.664C452.227,131.195,452.057,130.908,451.723,130.645C451.304,130.17,450.926,130.223,450.34,130.152C449.64,130.029,448.749,130.029,447.305,130.0C445.459,129.962,444.287,129.895,443.461,129.801zM457.963,127.75V130.0H455.713V127.75H457.963z"/>
</svg>
